<svg xmlns:xlink="http://www.w3.org/1999/xlink" xmlns="http://www.w3.org/2000/svg" width="39" height="38" viewBox="0 0 39 38" fill="none">
<path fill-rule="evenodd" clip-rule="evenodd" d="M13.4987 22.6927C13.4987 23.5672 12.7898 24.276 11.9154 24.276C11.0409 24.276 10.332 23.5672 10.332 22.6927C10.332 21.8183 11.0409 21.1094 11.9154 21.1094C12.7898 21.1094 13.4987 21.8183 13.4987 22.6927Z" fill="#9C27B0"/>
<path fill-rule="evenodd" clip-rule="evenodd" d="M13.4987 15.306C13.4987 16.1804 12.7898 16.8893 11.9154 16.8893C11.0409 16.8893 10.332 16.1804 10.332 15.306C10.332 14.4315 11.0409 13.7227 11.9154 13.7227C12.7898 13.7227 13.4987 14.4315 13.4987 15.306Z" fill="#9C27B0"/>
<path fill-rule="evenodd" clip-rule="evenodd" d="M13.4987 7.91536C13.4987 8.78982 12.7898 9.4987 11.9154 9.4987C11.0409 9.4987 10.332 8.78982 10.332 7.91536C10.332 7.04091 11.0409 6.33203 11.9154 6.33203C12.7898 6.33203 13.4987 7.04091 13.4987 7.91536Z" fill="#9C27B0"/>
<path fill-rule="evenodd" clip-rule="evenodd" d="M28.276 24.276H15.6094V21.1094H28.276V24.276Z" fill="#9C27B0"/>
<path fill-rule="evenodd" clip-rule="evenodd" d="M28.276 16.8893H15.6094V13.7227H28.276V16.8893Z" fill="#9C27B0"/>
<path fill-rule="evenodd" clip-rule="evenodd" d="M28.276 9.4987H15.6094V6.33203H28.276V9.4987Z" fill="#9C27B0"/>
<path fill-rule="evenodd" clip-rule="evenodd" d="M28.276 31.6667H15.6094V28.5H28.276V31.6667Z" fill="#9C27B0"/>
<path fill-rule="evenodd" clip-rule="evenodd" d="M13.4987 30.0833C13.4987 30.9578 12.7898 31.6667 11.9154 31.6667C11.0409 31.6667 10.332 30.9578 10.332 30.0833C10.332 29.2089 11.0409 28.5 11.9154 28.5C12.7898 28.5 13.4987 29.2089 13.4987 30.0833Z" fill="#9C27B0"/>
<path fill-rule="evenodd" clip-rule="evenodd" d="M30.3889 2.11111H8.22222C7.05629 2.11111 6.11111 3.05629 6.11111 4.22222V33.7778C6.11111 34.9437 7.05629 35.8889 8.22222 35.8889H30.3889C31.5548 35.8889 32.5 34.9437 32.5 33.7778V4.22222C32.5 3.05629 31.5548 2.11111 30.3889 2.11111ZM8.22222 0C5.89035 0 4 1.89035 4 4.22222V33.7778C4 36.1096 5.89035 38 8.22222 38H30.3889C32.7208 38 34.6111 36.1096 34.6111 33.7778V4.22222C34.6111 1.89035 32.7208 0 30.3889 0H8.22222Z" fill="#9C27B0"/>
</svg>