<svg xmlns:xlink="http://www.w3.org/1999/xlink" xmlns="http://www.w3.org/2000/svg" width="83" height="84" viewBox="0 0 83 84" fill="none">
<path fill-rule="evenodd" clip-rule="evenodd" d="M49.5273 20.377H59.9337C71.7689 20.377 81.3341 29.9638 81.3879 41.7953L81.3879 41.8101C81.3879 53.7069 71.7607 63.2888 59.9337 63.2888H49.5273V56.7954H59.9337C68.1869 56.7954 74.8981 50.1139 74.9019 41.8171C74.8603 33.5466 68.1786 26.8704 59.9337 26.8704H49.5273V20.377Z" fill="#9B27AF"/>
<path fill-rule="evenodd" clip-rule="evenodd" d="M1.82812 41.8557C1.82812 29.9642 11.4043 20.377 23.2823 20.377H33.8256V26.8704H23.2823C14.9864 26.8704 8.3141 33.5504 8.3141 41.8557C8.3141 50.1207 14.9917 56.8411 23.2823 56.8411H33.8256V63.3345H23.2823C11.3991 63.3345 1.82812 53.6963 1.82812 41.8557Z" fill="#9B27AF"/>
<path fill-rule="evenodd" clip-rule="evenodd" d="M61.2585 45.1008H22.0977V38.6074H61.2585V45.1008Z" fill="#9B27AF"/>
</svg>