<svg xmlns:xlink="http://www.w3.org/1999/xlink" xmlns="http://www.w3.org/2000/svg" width="83" height="84" viewBox="0 0 83 84" fill="none">
<g clip-path="url(#clip0_3195_196413)">
<path fill-rule="evenodd" clip-rule="evenodd" d="M32.7266 21.5254L40.085 14.167C48.4537 5.79827 61.9963 5.81349 70.4004 14.1417L70.4109 14.152C78.8232 22.5644 78.7912 36.1473 70.4283 44.5103L63.0699 51.8687L58.4783 47.2771L65.8367 39.9187C71.6726 34.0829 71.6936 24.6128 65.8296 18.7434C59.952 12.9247 50.5065 12.9285 44.6765 18.7585L37.3181 26.1169L32.7266 21.5254Z" fill="#9B27AF"/>
<path fill-rule="evenodd" clip-rule="evenodd" d="M14.1878 70.4417C5.77918 62.0331 5.77141 48.4825 14.1704 40.0835L21.6256 32.6283L26.2172 37.2198L18.7619 44.6751C12.8959 50.5411 12.9013 59.9827 18.7741 65.8554C24.6183 71.6996 34.0921 71.7299 39.9544 65.8676L47.4097 58.4123L52.0012 63.0039L44.546 70.4591C36.1433 78.8618 22.5604 78.8143 14.1878 70.4417Z" fill="#9B27AF"/>
<path fill-rule="evenodd" clip-rule="evenodd" d="M58.5051 30.719L30.8142 58.4099L26.2227 53.8184L53.9136 26.1274L58.5051 30.719Z" fill="#9B27AF"/>
<path fill-rule="evenodd" clip-rule="evenodd" d="M70.6309 58.2558C73.4386 56.1708 77.3533 58.4589 76.9732 61.9723L76.9399 62.3108C76.7531 64.0709 77.7068 65.7565 79.3074 66.4673L79.6141 66.6027C82.7953 68.031 82.7953 72.614 79.6141 74.0356L79.3074 74.171C77.7135 74.8886 76.7531 76.5674 76.9399 78.3275L76.9732 78.666C77.3467 82.1794 73.4386 84.4675 70.6309 82.3825L70.3642 82.1862C68.957 81.1369 67.043 81.1369 65.6358 82.1862L65.3691 82.3825C62.5614 84.4675 58.6467 82.1794 59.0268 78.666L59.0601 78.3275C59.2469 76.5674 58.2932 74.8818 56.6926 74.171L56.3859 74.0356C53.2047 72.6073 53.2047 68.0243 56.3859 66.6027L56.6926 66.4673C58.2865 65.7497 59.2469 64.0709 59.0601 62.3108L59.0268 61.9723C58.64 58.4657 62.5547 56.1708 65.3624 58.2558C66.9296 59.4202 69.057 59.4202 70.6309 58.2558Z" fill="#9B27AF"/>
<path d="M67.9962 75.8295C70.9906 75.8295 73.4181 73.3655 73.4181 70.3259C73.4181 67.2863 70.9906 64.8223 67.9962 64.8223C65.0017 64.8223 62.5742 67.2863 62.5742 70.3259C62.5742 73.3655 65.0017 75.8295 67.9962 75.8295Z" fill="white"/>
</g>
<defs>
<clipPath id="clip0_3195_196413">
<rect width="82.1557" height="82.25" fill="white" transform="translate(0.507812 0.775391)"/>
</clipPath>
</defs>
</svg>