<svg xmlns:xlink="http://www.w3.org/1999/xlink" xmlns="http://www.w3.org/2000/svg" width="39" height="38" viewBox="0 0 39 38" fill="none">
<g clip-path="url(#clip0_16302_73293)">
<path d="M32.6959 7.88708L25.5396 1.11677C24.7784 0.396625 23.7821 0 22.7342 0H9.10938C6.85854 0 5.02734 1.8312 5.02734 4.08203V33.918C5.02734 36.1688 6.85854 38 9.10938 38H29.8906C32.1415 38 33.9727 36.1688 33.9727 33.918V10.8524C33.9727 9.7355 33.5073 8.65465 32.6959 7.88708ZM30.5334 8.90625H24.9922C24.7876 8.90625 24.6211 8.73978 24.6211 8.53516V3.3129L30.5334 8.90625ZM29.8906 35.7734H9.10938C8.08627 35.7734 7.25391 34.9411 7.25391 33.918V4.08203C7.25391 3.05893 8.08627 2.22656 9.10938 2.22656H22.3945V8.53516C22.3945 9.9675 23.5598 11.1328 24.9922 11.1328H31.7461V33.918C31.7461 34.9411 30.9137 35.7734 29.8906 35.7734Z" fill="#9B27AF"/>
<path d="M12.8203 10.0195V12.2461C12.8203 12.8609 13.3188 13.3594 13.9336 13.3594C14.5484 13.3594 15.0469 12.8609 15.0469 12.2461V10.0195H17.2734C17.8883 10.0195 18.3867 9.52108 18.3867 8.90625C18.3867 8.29142 17.8883 7.79297 17.2734 7.79297H15.0469V5.56641C15.0469 4.95158 14.5484 4.45312 13.9336 4.45312C13.3188 4.45312 12.8203 4.95158 12.8203 5.56641V7.79297H10.5938C9.97892 7.79297 9.48047 8.29142 9.48047 8.90625C9.48047 9.52108 9.97892 10.0195 10.5938 10.0195H12.8203Z" fill="#9B27AF"/>
<path d="M27.4414 17.0703H11.1133C10.4985 17.0703 10 17.5688 10 18.1836C10 18.7984 10.4985 19.2969 11.1133 19.2969H27.4414C28.0562 19.2969 28.5547 18.7984 28.5547 18.1836C28.5547 17.5688 28.0562 17.0703 27.4414 17.0703Z" fill="#9B27AF"/>
<path d="M27.4414 23.0078H11.1133C10.4985 23.0078 10 23.5063 10 24.1211C10 24.7359 10.4985 25.2344 11.1133 25.2344H27.4414C28.0562 25.2344 28.5547 24.7359 28.5547 24.1211C28.5547 23.5063 28.0562 23.0078 27.4414 23.0078Z" fill="#9B27AF"/>
<path d="M16.5105 28.9453H11.1133C10.4985 28.9453 10 29.4438 10 30.0586C10 30.6734 10.4985 31.1719 11.1133 31.1719H16.5105C17.1253 31.1719 17.6238 30.6734 17.6238 30.0586C17.6238 29.4438 17.1253 28.9453 16.5105 28.9453Z" fill="#9B27AF"/>
</g>
<defs>
<clipPath id="clip0_16302_73293">
<rect width="38" height="38" fill="white" transform="translate(0.5)"/>
</clipPath>
</defs>
</svg>