<svg xmlns:xlink="http://www.w3.org/1999/xlink" xmlns="http://www.w3.org/2000/svg" width="83" height="84" viewBox="0 0 83 84" fill="none">
<path fill-rule="evenodd" clip-rule="evenodd" d="M6.39453 75.1644V64.5176H12.8805V75.0249H67.6005V64.5176H74.0865V75.1644C74.0865 78.7249 71.1885 81.5183 67.7398 81.5183H12.7412C9.18476 81.5183 6.39453 78.617 6.39453 75.1644Z" fill="#9C27B0"/>
<path fill-rule="evenodd" clip-rule="evenodd" d="M14.7951 8.59108C13.7563 8.59108 12.8805 9.46789 12.8805 10.5078V28.9684H6.39453V10.5078C6.39453 5.88168 10.1742 2.09766 14.7951 2.09766H54.458C56.6819 2.09766 58.832 2.98418 60.4025 4.55651L72.7259 16.894C74.0087 18.1784 74.7711 19.9597 74.7711 21.8401V28.9684H68.2852V21.8401C68.2852 21.7098 68.226 21.572 68.1396 21.4856L55.8162 9.14805C55.4698 8.80122 54.9727 8.59108 54.458 8.59108H14.7951Z" fill="#9C27B0"/>
<path d="M27.2991 35.8695C26.6602 35.1841 25.8842 34.59 24.9258 34.1788C23.9673 33.7675 22.8262 33.5391 21.5026 33.5391H11.1875V59.9504H18.0794V49.8977H20.4985C23.3283 49.8977 25.4735 49.2123 26.934 47.8414C28.3946 46.4706 29.1248 44.4143 29.1248 41.6727C29.1248 40.5303 28.9879 39.4793 28.6684 38.4741C28.3946 37.4688 27.9381 36.6006 27.2991 35.8695ZM21.3657 44.1402C20.9093 44.6428 20.2703 44.917 19.4031 44.917H18.0794V38.5198H19.3574C21.1375 38.5198 22.0047 39.5707 22.0047 41.7184C22.0047 42.815 21.8221 43.6375 21.3657 44.1402Z" fill="#9C27B0"/>
<path d="M32.2266 33.5391V59.9504H42.1765C44.1848 59.9504 45.7366 59.5849 46.832 58.8538C47.9274 58.1227 48.7946 57.1631 49.3423 55.9293C49.89 54.6956 50.2095 53.3248 50.3465 51.7254C50.4834 50.1261 50.529 48.4811 50.529 46.7448C50.529 45.0084 50.4834 43.3634 50.3465 41.7641C50.2095 40.1648 49.89 38.7939 49.3423 37.5602C48.7946 36.3264 47.9731 35.3668 46.832 34.6357C45.691 33.9046 44.1848 33.5391 42.1765 33.5391H32.2266ZM42.9524 39.9363C43.1807 40.5303 43.3176 41.3528 43.3632 42.4495C43.4089 43.5461 43.4545 44.9627 43.4545 46.7448C43.4545 48.5268 43.4089 49.9434 43.3632 51.04C43.3176 52.1367 43.1807 52.9592 42.9524 53.5532C42.7242 54.1473 42.4504 54.5128 42.0396 54.7413C41.6288 54.9241 41.1268 55.0154 40.4421 55.0154H39.0729V38.4741H40.4421C41.1268 38.4741 41.6288 38.5655 42.0396 38.7482C42.4504 38.9767 42.7242 39.3423 42.9524 39.9363Z" fill="#9C27B0"/>
<path d="M61.2123 49.0752H69.3822V43.6832H61.2123V39.1595H69.9755V33.5391H54.3203V59.9504H61.2123V49.0752Z" fill="#9C27B0"/>
</svg>