<svg xmlns:xlink="http://www.w3.org/1999/xlink" xmlns="http://www.w3.org/2000/svg" width="83" height="84" viewBox="0 0 83 84" fill="none">
<g clip-path="url(#clip0_2949_99938)">
<path fill-rule="evenodd" clip-rule="evenodd" d="M6.65405 17.009H0.507812V10.5156H82.6635V17.009H76.5551V55.3353C76.5551 57.2965 75.7957 59.1922 74.4205 60.6017C73.0428 62.0137 71.1578 62.8214 69.1758 62.8214H49.2869L60.4508 74.2634L55.811 78.8008L41.5857 64.221L27.3603 78.8008L22.7205 74.2634L33.8844 62.8214H14.0333C12.0514 62.8214 10.1664 62.0137 8.78866 60.6017C7.41347 59.1922 6.65405 57.2965 6.65405 55.3353V17.009ZM13.14 17.009V55.3353C13.14 55.6228 13.2522 55.8837 13.4284 56.0643C13.6021 56.2423 13.8213 56.328 14.0333 56.328H69.1758C69.3879 56.328 69.6071 56.2423 69.7808 56.0643C69.957 55.8837 70.0691 55.6229 70.0691 55.3353V17.009H13.14ZM61.3739 21.8992V50.9592H54.8879V21.8992H61.3739ZM44.8286 30.036V50.9592H38.3427V30.036H44.8286ZM28.2834 37.0104V50.9592H21.7974V37.0104H28.2834Z" fill="#9C27B0"/>
</g>
<defs>
<clipPath id="clip0_2949_99938">
<rect width="82.1557" height="82.25" fill="white" transform="translate(0.507812 0.775391)"/>
</clipPath>
</defs>
</svg>