<svg xmlns:xlink="http://www.w3.org/1999/xlink" xmlns="http://www.w3.org/2000/svg" width="83" height="84" viewBox="0 0 83 84" fill="none">
<path fill-rule="evenodd" clip-rule="evenodd" d="M42.0849 6C42.0849 4.34315 43.4281 3 45.0849 3H56.6485C58.3053 3 59.6485 4.34315 59.6485 6V6.24666C59.6485 10.4076 61.5767 13.8227 64.3087 16.2575C67.1029 18.7477 70.5031 20 73 20C74.6569 20 76 21.3431 76 23V34.6723C76 36.3292 74.6569 37.6723 73 37.6723C68.1838 37.6723 63.632 36.4814 59.6485 34.3638V54.5042C59.6485 68.5614 48.33 80 34.3242 80C20.3185 80 9 68.5614 9 54.5042C9 40.447 20.3185 29.0083 34.3242 29.0083C35.9811 29.0083 37.3242 30.3515 37.3242 32.0083V43.6608C37.3242 45.3176 35.9811 46.6608 34.3242 46.6608C30.0594 46.6608 26.5636 50.1503 26.5636 54.5042C26.5636 58.858 30.0594 62.3476 34.3242 62.3476C38.5891 62.3476 42.0849 58.858 42.0849 54.5042V6ZM48.0849 9V54.5042C48.0849 62.1283 41.946 68.3476 34.3242 68.3476C26.7024 68.3476 20.5636 62.1283 20.5636 54.5042C20.5636 47.9113 25.154 42.369 31.3242 40.9902V35.2423C22.093 36.6959 15 44.7506 15 54.5042C15 65.2911 23.6754 74 34.3242 74C44.9731 74 53.6485 65.2911 53.6485 54.5042V28.7326C53.6485 27.5651 54.3258 26.5036 55.3847 26.0118C56.4436 25.52 57.6916 25.6871 58.5837 26.4403C61.7436 29.1079 65.6739 30.903 70 31.4755V25.6905C66.6384 25.0171 63.1628 23.2732 60.3168 20.7369C57.1258 17.8931 54.5587 13.901 53.8459 9H48.0849Z" fill="#9C27B0"/>
</svg>