<svg xmlns:xlink="http://www.w3.org/1999/xlink" xmlns="http://www.w3.org/2000/svg" width="83" height="84" viewBox="0 0 83 84" fill="none">
<path fill-rule="evenodd" clip-rule="evenodd" d="M11.2784 13.1614C9.64633 13.1614 8.3141 14.4951 8.3141 16.1291V64.0169C8.3141 65.6509 9.64633 66.9846 11.2784 66.9846H71.7541C73.3862 66.9846 74.7185 65.6509 74.7185 64.0169V16.1291C74.7185 14.4951 73.3862 13.1614 71.7541 13.1614H11.2784ZM1.82812 16.1291C1.82812 10.9089 6.06422 6.66797 11.2784 6.66797H71.7541C76.9683 6.66797 81.2044 10.9089 81.2044 16.1291V64.0169C81.2044 69.2371 76.9683 73.4781 71.7541 73.4781H11.2784C6.06422 73.4781 1.82812 69.2371 1.82812 64.0169V16.1291Z" fill="#9C27B0"/>
<path d="M24.2888 28.9138C26.6769 28.9138 28.6128 26.9756 28.6128 24.5848C28.6128 22.194 26.6769 20.2559 24.2888 20.2559C21.9008 20.2559 19.9648 22.194 19.9648 24.5848C19.9648 26.9756 21.9008 28.9138 24.2888 28.9138Z" fill="#9C27B0"/>
<path fill-rule="evenodd" clip-rule="evenodd" d="M64.4038 43.9133H19.6289V37.4199H64.4038V43.9133Z" fill="#9C27B0"/>
<path fill-rule="evenodd" clip-rule="evenodd" d="M64.4077 58.7649H19.6328V52.2715H64.4077V58.7649Z" fill="#9C27B0"/>
<path fill-rule="evenodd" clip-rule="evenodd" d="M64.4074 29.6126H37.8438V23.1191H64.4074V29.6126Z" fill="#9C27B0"/>
</svg>