<svg xmlns:xlink="http://www.w3.org/1999/xlink" xmlns="http://www.w3.org/2000/svg" width="39" height="38" viewBox="0 0 39 38" fill="none">
<g clip-path="url(#clip0_16302_73275)">
<path d="M19.5 35.625C15.0908 35.625 10.8621 33.8734 7.74435 30.7556C4.62656 27.6379 2.875 23.4092 2.875 19C2.875 14.5908 4.62656 10.3621 7.74435 7.24435C10.8621 4.12656 15.0908 2.375 19.5 2.375C23.9092 2.375 28.1379 4.12656 31.2556 7.24435C34.3734 10.3621 36.125 14.5908 36.125 19C36.125 23.4092 34.3734 27.6379 31.2556 30.7556C28.1379 33.8734 23.9092 35.625 19.5 35.625ZM19.5 38C24.5391 38 29.3718 35.9982 32.935 32.435C36.4982 28.8718 38.5 24.0391 38.5 19C38.5 13.9609 36.4982 9.12816 32.935 5.56497C29.3718 2.00178 24.5391 0 19.5 0C14.4609 0 9.62816 2.00178 6.06497 5.56497C2.50178 9.12816 0.5 13.9609 0.5 19C0.5 24.0391 2.50178 28.8718 6.06497 32.435C9.62816 35.9982 14.4609 38 19.5 38Z" fill="#9B27AF"/>
<path d="M15.3936 12.0068C15.5879 11.9067 15.8059 11.8622 16.0238 11.8782C16.2417 11.8941 16.451 11.9698 16.6286 12.097L24.9411 18.0345C25.0951 18.1444 25.2205 18.2894 25.3071 18.4575C25.3937 18.6256 25.4388 18.812 25.4388 19.0011C25.4388 19.1902 25.3937 19.3766 25.3071 19.5447C25.2205 19.7129 25.0951 19.8579 24.9411 19.9678L16.6286 25.9053C16.4511 26.0323 16.2419 26.108 16.0241 26.1239C15.8063 26.1399 15.5884 26.0954 15.3942 25.9955C15.2 25.8956 15.0372 25.7441 14.9235 25.5576C14.8099 25.3712 14.7498 25.157 14.75 24.9386V13.0636C14.7498 12.8453 14.8097 12.6312 14.9233 12.4447C15.0368 12.2583 15.1996 12.1067 15.3936 12.0068Z" fill="#9B27AF"/>
</g>
<defs>
<clipPath id="clip0_16302_73275">
<rect width="38" height="38" fill="white" transform="translate(0.5)"/>
</clipPath>
</defs>
</svg>